<svg width="167" height="32" viewBox="0 0 167 32" fill="none" xmlns="http://www.w3.org/2000/svg">
<path d="M36.5103 23.9744C35.7907 24.2317 35.1623 24.4576 34.5314 24.6762C32.281 25.4561 30.0434 25.4298 27.7706 24.7022C26.8605 24.4109 26.4112 23.8651 26.1073 22.7663C29.2657 24.1629 32.3008 24.6669 35.4058 22.9493C34.6637 22.1502 33.9835 21.6199 32.7868 21.9528C31.3152 22.3622 29.7968 22.1427 28.335 21.7134C27.5353 21.4785 26.7702 21.1163 25.9634 20.9169C25.1562 20.7173 24.923 20.2135 24.9002 19.3276C27.4314 19.9703 29.7548 21.3953 32.5751 20.7449C31.9536 19.9017 31.5954 18.9952 30.3095 18.9391C28.4089 18.8562 26.6843 18.0074 24.9105 17.4009C24.2255 17.1666 24.4896 16.6267 24.5481 16.0874C26.4648 16.4422 28.123 17.5734 30.0961 17.6266C30.0424 16.3119 29.5276 15.626 28.281 15.3848C27.226 15.1806 26.2249 14.7039 25.1935 14.3673C24.7909 14.2359 24.5177 14.0635 24.62 13.5724C24.7028 13.1751 24.8646 12.9718 25.3065 13.129C26.3288 13.4927 27.3526 13.8534 28.385 14.1865C28.681 14.282 29.0875 14.5314 29.3014 14.1828C29.5594 13.7622 29.6088 13.2299 29.5288 12.7327C29.493 12.5102 29.2018 12.5249 29.0043 12.4776C27.9055 12.2145 26.8452 11.8321 25.7921 11.4293C25.5152 11.3234 25.2575 11.2077 25.3157 10.8115C25.3882 10.3179 25.6552 10.1224 26.181 10.2883C27.1358 10.5896 28.076 10.9376 29.0333 11.2301C29.7249 11.4414 30.3533 11.4568 31.0136 10.9378C31.8466 10.283 32.8845 10.2442 33.8866 10.5593C34.4831 10.7469 35.024 10.7009 35.5871 10.4772C37.9194 9.55056 40.2961 9.02619 42.7988 9.72854C43.0527 9.79979 43.2888 9.77876 43.5007 9.59458C43.7211 9.40305 43.9513 9.22257 44.1813 9.04242C44.3428 8.9158 44.5369 8.82037 44.5863 8.48938C42.7093 7.64627 40.7634 7.20883 38.6723 7.64835C37.3166 7.93329 36.0428 8.46538 34.7463 8.92637C32.1947 9.83354 29.6681 9.77603 27.162 8.77277C26.8666 8.65452 26.3044 8.70469 26.5306 8.09954C26.7244 7.58116 27.0824 7.40361 27.6176 7.66297C27.8411 7.77124 28.091 7.82485 28.329 7.903C30.3038 8.55141 32.2675 8.52648 34.2234 7.81596C35.1256 7.48821 36.0301 7.16644 36.9383 6.85611C39.2331 6.07209 41.5277 6.07488 43.8174 6.88207C44.4867 7.11801 45.1629 7.33746 45.8205 7.6028C48.1245 8.53242 50.4399 8.64419 52.7833 7.76067C53.0552 7.65816 53.3381 7.54922 53.6229 7.52498C54.0409 7.48944 54.1889 7.84761 54.2874 8.15899C54.3921 8.48996 54.0811 8.57344 53.8578 8.65862C52.7321 9.08806 51.5731 9.404 50.3978 9.57785C50.3841 9.71944 50.3425 9.81696 50.3736 9.8763C51.1918 11.4372 51.1941 11.4393 52.9058 10.8541C53.498 10.6517 54.0897 10.4457 54.6714 10.2155C55.0751 10.0558 55.2819 10.1745 55.4257 10.5756C55.5635 10.9602 55.5349 11.1979 55.1021 11.3394C54.1109 11.6634 53.1312 12.0224 52.1425 12.3539C51.4758 12.5774 51.0526 13.4561 51.3297 14.1054C51.463 14.4177 51.7449 14.3463 51.9722 14.2737C52.8067 14.0073 53.6339 13.7178 54.463 13.4346C54.7789 13.3267 55.0876 13.1942 55.4088 13.1068C55.683 13.0322 56.0027 12.922 56.1133 13.3504C56.2123 13.7338 56.2734 14.0949 55.7647 14.2611C54.4562 14.6886 53.1799 15.299 51.8388 15.5182C50.492 15.7384 49.9684 16.5443 49.4994 17.6642C50.0073 17.901 50.4481 17.7389 50.8795 17.6704C52.2513 17.4525 53.5181 16.893 54.8176 16.44C55.0539 16.3576 55.2905 16.2729 55.5324 16.2103C55.7947 16.1426 56.1502 15.9035 56.2824 16.2995C56.411 16.6848 56.4461 17.1439 55.8965 17.3337C53.8509 18.0402 51.8684 19.0769 49.64 18.9623C48.4338 18.9003 47.656 19.3252 47.0029 20.4265C50.164 21.7403 52.9172 20.1357 55.7527 19.2839C55.8686 20.3831 55.8431 20.4889 55.0817 20.7647C53.9841 21.1623 52.9023 21.6053 51.7565 21.8679C50.1759 22.2302 48.5761 22.2957 47.0554 21.7742C45.8626 21.3652 44.9671 21.5676 44.0867 22.5155C47.509 24.3868 50.9498 24.5749 54.6178 22.7032C54.4647 23.7356 54.1207 24.2636 53.3271 24.5513C50.9659 25.4078 48.6016 25.5324 46.2119 24.7046C45.2261 24.3631 44.2438 24.0112 43.2624 23.6573C42.6511 23.4368 42.0592 23.3675 41.4569 23.7127C41.1703 23.8769 40.836 23.9559 40.5281 24.085C39.5678 24.4876 38.6165 24.6558 37.6668 24.046C37.3378 23.8348 36.9788 23.7428 36.5103 23.9744Z" fill="#657E96"/>
<path d="M132.742 15.6002C133.863 16.0987 134.852 16.6343 135.711 17.3812C138.391 19.7138 138.593 23.4736 136.15 26.0601C134.058 28.2749 131.411 29.2706 128.42 29.389C124.465 29.5456 121.096 28.021 118.058 25.6319C117.45 25.1542 117.4 24.6819 117.784 24.2506C118.157 23.8311 118.6 23.8157 119.212 24.2858C120.511 25.2829 121.874 26.1765 123.416 26.732C126.884 27.9814 130.284 28.0205 133.5 25.9549C133.952 25.665 134.366 25.295 134.736 24.9042C136.537 23.0029 136.419 20.4361 134.464 18.6972C133.739 18.0522 132.896 17.597 131.997 17.2402C130.557 16.6683 129.068 16.2775 127.544 16.0015C125.399 15.613 123.308 15.047 121.423 13.9032C117.709 11.6506 117.275 7.28855 120.574 4.45308C123.566 1.88227 127.065 1.40518 130.807 2.4135C132.643 2.90803 134.274 3.83471 135.834 4.89689C135.869 4.92036 135.906 4.94035 135.939 4.96588C136.552 5.44204 136.651 5.81913 136.304 6.33531C135.932 6.88791 135.474 6.79213 134.999 6.50245C134.394 6.13291 133.805 5.73467 133.19 5.38163C130.756 3.98383 128.185 3.31806 125.381 3.98109C123.85 4.34324 122.462 4.9829 121.373 6.15838C119.611 8.061 119.819 10.4885 121.904 12.0263C123.665 13.3252 125.741 13.8266 127.84 14.2252C129.485 14.5376 131.1 14.9384 132.742 15.6002Z" fill="#657E96"/>
<path d="M153.216 23.3117C153.216 24.3144 153.213 25.1918 153.217 26.0692C153.223 27.4068 153.225 27.4111 154.619 27.413C157.124 27.4164 159.629 27.414 162.134 27.4141C163.219 27.4141 164.305 27.4098 165.39 27.4169C165.681 27.4188 165.981 27.4168 166.26 27.4845C166.775 27.6094 167.038 27.9861 166.99 28.5029C166.947 28.9582 166.666 29.2694 166.186 29.3267C165.939 29.3562 165.686 29.3491 165.436 29.3491C161.261 29.3504 157.086 29.3502 152.911 29.35C152.702 29.35 152.492 29.3636 152.285 29.3417C151.57 29.2658 151.37 29.0532 151.308 28.3052C151.291 28.0977 151.303 27.8876 151.303 27.6787C151.303 19.8239 151.303 11.9692 151.303 4.11438C151.303 3.82205 151.295 3.52831 151.319 3.2377C151.359 2.75669 151.644 2.47341 152.113 2.41347C152.442 2.37132 152.779 2.37905 153.112 2.37888C157.12 2.37692 161.128 2.37705 165.136 2.37873C165.47 2.37887 165.805 2.37503 166.137 2.40669C166.678 2.45832 166.955 2.80202 166.997 3.31811C167.04 3.83249 166.672 4.2082 166.062 4.27572C165.732 4.31232 165.395 4.2911 165.061 4.29118C161.512 4.29191 157.963 4.28818 154.415 4.29366C153.234 4.2955 153.222 4.30593 153.218 5.45775C153.211 8.21527 153.21 10.9728 153.219 13.7303C153.223 14.8934 153.238 14.9085 154.416 14.912C157.422 14.9211 160.428 14.9137 163.434 14.9176C163.809 14.9181 164.189 14.9135 164.558 14.9703C165.08 15.0509 165.365 15.3887 165.359 15.925C165.353 16.4742 165.044 16.7677 164.508 16.8123C164.217 16.8364 163.924 16.8289 163.632 16.829C160.626 16.83 157.62 16.8279 154.614 16.8304C153.224 16.8315 153.22 16.8351 153.217 18.1728C153.213 19.844 153.216 21.5153 153.216 23.3117Z" fill="#657E96"/>
<path d="M70.3406 18.3991C68.3988 13.7666 66.4927 9.22302 64.5881 4.67875C64.4591 4.37108 64.304 4.06758 64.2275 3.7463C64.1041 3.22819 64.3435 2.83961 64.8097 2.62817C65.2939 2.40859 65.7232 2.55031 66.0023 2.99629C66.1773 3.27608 66.2834 3.60011 66.4124 3.90768C69.2695 10.7239 72.1232 17.5416 74.988 24.3546C75.1433 24.7241 75.2214 25.1572 75.62 25.4135C76.0378 25.269 76.0809 24.8645 76.2192 24.5365C79.1242 17.65 82.0257 10.762 84.9288 3.87471C85.0584 3.56737 85.1692 3.24702 85.3394 2.96318C85.5868 2.55071 85.9946 2.42813 86.4262 2.599C86.8912 2.7831 87.178 3.15176 87.0726 3.68125C87.0082 4.00473 86.8636 4.31501 86.7339 4.62224C83.3714 12.5848 80.0032 20.5448 76.649 28.5108C76.4566 28.9677 76.2497 29.3413 75.7065 29.375C75.1 29.4126 74.8136 29.0279 74.6051 28.5319C73.3917 25.6449 72.1743 22.7595 70.9584 19.8735C70.7639 19.4118 70.5705 18.9497 70.3406 18.3991Z" fill="#657E96"/>
<path d="M1.96913 19.0492C1.96914 21.5142 1.96531 23.8538 1.97081 26.1934C1.97362 27.3925 1.98115 27.3996 3.22726 27.4009C6.81759 27.4048 10.4079 27.401 13.9982 27.4047C14.3714 27.4051 14.755 27.345 15.1136 27.4933C15.5383 27.669 15.7859 27.9878 15.77 28.4597C15.7538 28.9392 15.4758 29.2399 15.0245 29.3419C14.7438 29.4054 14.4449 29.4054 14.1541 29.4056C9.97931 29.4093 5.80451 29.4136 1.62973 29.4052C0.174331 29.4023 0.00349072 29.2161 0.0029937 27.7097C0.000370689 19.8136 0.00172429 11.9174 0.00234371 4.02124C0.002359 3.77068 -0.0086296 3.51825 0.0168499 3.26993C0.0712119 2.74011 0.382304 2.43759 0.906049 2.38465C1.41879 2.33284 1.85054 2.68694 1.94165 3.25911C1.99367 3.58576 1.96824 3.92563 1.96833 4.25955C1.96953 9.14765 1.96915 14.0358 1.96913 19.0492Z" fill="#657E96"/>
<path d="M101.438 25.3164C101.438 18.2128 101.438 11.2342 101.439 4.25564C101.439 3.92142 101.432 3.58656 101.45 3.25312C101.475 2.76715 101.749 2.46589 102.224 2.42531C102.732 2.38194 103.138 2.59252 103.258 3.12624C103.33 3.44809 103.347 3.78813 103.347 4.12002C103.351 11.9761 103.351 19.8322 103.347 27.6884C103.347 27.9794 103.34 28.2765 103.283 28.5602C103.179 29.081 102.834 29.3528 102.302 29.3329C101.751 29.3123 101.461 28.9879 101.451 28.45C101.433 27.4474 101.441 26.4444 101.438 25.3164Z" fill="#657E96"/>
<path d="M52.4415 5.46036C52.7037 5.96765 52.363 6.02573 52.0873 6.10187C50.8256 6.45022 49.5495 6.5525 48.2456 6.36936C46.7416 6.15812 45.3421 5.61326 43.9424 5.07109C41.5814 4.15656 39.2262 4.12141 36.8566 5.03163C36.0392 5.34562 35.2157 5.6473 34.3822 5.91492C32.6435 6.47321 30.8754 6.65642 29.0765 6.2264C28.7609 6.15097 28.4102 6.14467 28.1777 5.83947C28.4353 5.13338 28.9166 4.90356 29.6481 5.07444C31.2503 5.4487 32.7994 5.14717 34.3209 4.63563C35.1114 4.36986 35.8915 4.07312 36.676 3.78932C39.1724 2.8861 41.6623 2.91573 44.1474 3.83692C44.8905 4.11238 45.6307 4.39715 46.3816 4.6495C47.9469 5.17549 49.5413 5.43237 51.1818 5.04979C51.6594 4.9384 52.0917 4.90004 52.4415 5.46036Z" fill="#657E96"/>
<path d="M33.2797 26.9014C34.5275 26.4873 35.6754 26.1085 36.8166 25.7102C39.1912 24.8815 41.5593 24.8756 43.9271 25.7335C44.28 25.8613 44.6445 25.9594 44.9909 26.102C47.1427 26.9881 49.3368 27.5439 51.8816 26.858C51.1397 27.9764 50.4055 28.533 49.2034 28.4267C48.0279 28.3227 46.8973 28.0816 45.7887 27.7021C44.8813 27.3915 43.9779 27.0691 43.0706 26.7583C41.2701 26.1415 39.4636 26.1605 37.6621 26.7442C36.7102 27.0526 35.7693 27.395 34.8223 27.7189C33.9522 28.0164 33.0634 28.2278 32.1534 28.3744C30.8977 28.5765 29.847 28.3408 29.0938 27.0383C30.5031 27.1439 31.8567 27.3196 33.2797 26.9014Z" fill="#657E96"/>
<path d="M48.2751 3.23192C46.8416 3.04154 45.5812 2.59523 44.3536 2.08367C41.6725 0.966446 39.0238 0.969736 36.3403 2.07611C35.0725 2.59884 33.7744 3.06468 32.3963 3.23177C31.9497 3.28593 31.5029 3.37688 30.8203 3.24482C31.5442 2.57884 32.2189 2.15715 32.9786 1.89043C34.2739 1.43562 35.5884 1.03569 36.8878 0.592098C39.2197 -0.203905 41.54 -0.198334 43.868 0.614995C45.2032 1.08149 46.5211 1.59871 47.8998 1.94091C48.6362 2.1237 49.218 2.60786 49.8716 3.12696C49.3274 3.46226 48.8444 3.27089 48.2751 3.23192Z" fill="#657E96"/>
<path d="M41.4292 28.2792C43.5786 28.5613 45.4132 29.4652 47.4761 30.117C46.7059 30.7757 46.0281 30.9992 45.2054 30.6422C44.7477 30.4436 44.2668 30.299 43.801 30.1179C41.5247 29.2328 39.2464 29.2458 36.9641 30.0919C36.5345 30.2512 36.0906 30.3796 35.6776 30.574C34.8225 30.9765 34.0987 30.773 33.2715 30.1021C35.9866 29.2028 38.4614 27.9328 41.4292 28.2792Z" fill="#657E96"/>
<path d="M41.0443 31.989C39.6441 32.0393 38.3784 31.9159 37.0645 31.6376C38.5769 30.5539 41.8246 30.51 43.7569 31.5491C42.877 31.9078 42.0133 31.9149 41.0443 31.989Z" fill="#657E96"/>
<path d="M36.211 11.8882C36.1682 11.7392 36.1524 11.6138 36.1865 11.5982C38.1101 10.7214 40.0821 10.2201 42.1947 10.8267C42.2201 11.2852 41.8733 11.5165 41.708 11.8394C41.4329 12.3764 41.0421 12.6336 40.4117 12.561C39.6604 12.4745 38.8972 12.6089 38.2032 12.8394C37.4672 13.0839 37.0211 12.8638 36.6036 12.3244C36.5026 12.1938 36.376 12.083 36.211 11.8882Z" fill="#F8F9FA"/>
<path d="M39.2571 14.6884C38.7085 14.7709 38.3784 14.5943 38.1738 14.1241C38.7462 13.682 39.3839 13.8148 40.0201 13.7618C40.0286 14.3435 39.6526 14.4699 39.2571 14.6884Z" fill="#F8F9FA"/>
</svg>
